<svg xmlns="http://www.w3.org/2000/svg" xmlns:xlink="http://www.w3.org/1999/xlink" width="1000" zoomAndPan="magnify" viewBox="0 0 375 374.999991" height="1000" preserveAspectRatio="xMidYMid meet" version="1.0"><defs><clipPath id="0b98cc5d7e"><path d="M 28 90 L 348.125 90 L 348.125 265 L 28 265 Z M 28 90 " clip-rule="nonzero"/></clipPath></defs><path fill="#2036b3" d="M 237.816406 202.730469 C 240.046875 198.875 240.25 193.933594 237.816406 189.738281 L 226.511719 170.175781 L 215.210938 189.738281 C 212.773438 193.867188 212.976562 198.875 215.210938 202.730469 C 216.292969 204.628906 217.917969 206.320312 220.015625 207.46875 C 222.046875 208.621094 224.277344 209.230469 226.511719 209.160156 C 228.746094 209.160156 230.980469 208.621094 233.007812 207.46875 C 235.109375 206.320312 236.730469 204.695312 237.816406 202.730469 Z M 138.527344 152.511719 C 136.292969 156.371094 136.089844 161.3125 138.527344 165.507812 L 149.828125 185.066406 L 161.132812 165.507812 C 163.5 161.378906 163.367188 156.371094 161.132812 152.511719 C 160.050781 150.617188 158.425781 148.925781 156.328125 147.773438 C 154.296875 146.625 152.0625 146.015625 149.828125 146.082031 C 147.597656 146.082031 145.363281 146.625 143.332031 147.773438 C 141.234375 148.925781 139.609375 150.550781 138.527344 152.511719 Z M 138.527344 152.511719 " fill-opacity="1" fill-rule="evenodd"/><g clip-path="url(#0b98cc5d7e)"><path fill="#2f81ff" d="M 219.8125 181.953125 L 226.578125 170.246094 L 217.441406 154.40625 L 217.441406 154.339844 L 196.257812 117.722656 C 191.519531 109.535156 184.886719 102.699219 176.699219 97.960938 L 175.953125 97.554688 C 167.96875 93.089844 158.964844 90.855469 149.761719 90.855469 C 140.558594 90.855469 131.554688 93.089844 123.5 97.554688 L 122.890625 97.894531 C 114.566406 102.699219 108.003906 109.535156 103.265625 117.722656 L 82.082031 154.339844 L 82.082031 154.40625 L 52.164062 206.25 C 48.578125 212.476562 50.746094 220.398438 56.972656 223.984375 C 63.199219 227.570312 71.117188 225.40625 74.703125 219.179688 L 104.957031 166.792969 L 125.734375 130.785156 C 128.171875 126.523438 131.554688 122.9375 135.820312 120.5 L 136.292969 120.230469 C 140.355469 117.996094 145.023438 116.980469 149.695312 116.980469 C 154.433594 116.980469 159.035156 117.996094 163.164062 120.230469 L 163.570312 120.433594 C 167.898438 122.9375 171.285156 126.523438 173.722656 130.785156 L 194.5 166.792969 L 214.9375 202.121094 C 213.042969 198.332031 212.976562 193.730469 215.277344 189.804688 Z M 156.53125 173.289062 L 161.066406 165.441406 C 163.367188 161.515625 163.296875 156.84375 161.402344 153.121094 L 181.84375 188.453125 L 202.621094 224.457031 C 205.058594 228.722656 208.441406 232.308594 212.773438 234.8125 L 213.179688 235.015625 C 217.308594 237.316406 221.910156 238.265625 226.648438 238.265625 C 231.386719 238.265625 235.988281 237.25 240.046875 235.015625 L 240.523438 234.746094 C 244.785156 232.308594 248.171875 228.722656 250.605469 224.457031 L 271.382812 188.453125 L 301.636719 136.066406 C 305.226562 129.839844 313.144531 127.671875 319.371094 131.261719 C 325.597656 134.847656 327.761719 142.765625 324.175781 148.992188 L 294.261719 200.835938 L 294.261719 200.90625 L 273.144531 237.519531 C 268.40625 245.710938 261.773438 252.546875 253.515625 257.351562 L 252.90625 257.6875 C 244.855469 262.222656 235.851562 264.390625 226.648438 264.390625 C 217.441406 264.390625 208.441406 262.15625 200.453125 257.6875 L 199.710938 257.28125 C 191.519531 252.546875 184.886719 245.710938 180.152344 237.519531 L 159.035156 200.90625 L 159.035156 200.835938 L 149.898438 185 Z M 322.347656 103.851562 C 322.347656 110.957031 328.101562 116.710938 335.207031 116.710938 C 342.3125 116.710938 348.066406 110.957031 348.066406 103.851562 C 348.066406 96.742188 342.3125 90.992188 335.207031 90.992188 C 328.101562 90.921875 322.347656 96.742188 322.347656 103.851562 Z M 53.992188 251.394531 C 53.992188 244.289062 48.242188 238.535156 41.132812 238.535156 C 34.027344 238.535156 28.273438 244.289062 28.273438 251.394531 C 28.273438 258.5 34.027344 264.253906 41.132812 264.253906 C 48.242188 264.253906 53.992188 258.5 53.992188 251.394531 Z M 53.992188 251.394531 " fill-opacity="1" fill-rule="evenodd"/></g><path fill="#a6fb3b" d="M 149.761719 185 L 138.460938 165.441406 C 136.023438 161.3125 136.226562 156.300781 138.460938 152.445312 L 101.777344 215.929688 L 85.058594 245.03125 C 81.472656 251.257812 83.570312 259.246094 89.796875 262.832031 C 96.023438 266.417969 104.007812 264.320312 107.597656 258.09375 L 124.246094 229.332031 Z M 226.578125 170.246094 L 237.882812 189.804688 C 240.320312 193.933594 240.117188 198.941406 237.882812 202.800781 L 274.566406 139.316406 L 291.351562 110.28125 C 294.9375 104.054688 292.839844 96.066406 286.613281 92.480469 C 280.386719 88.890625 272.398438 90.992188 268.8125 97.21875 L 252.164062 125.980469 Z M 226.578125 170.246094 " fill-opacity="1" fill-rule="evenodd"/></svg>